solid OpenSCAD_Model
  facet normal -0 0 -1
    outer loop
      vertex -14.1421 14.1421 0
      vertex 0 20 0
      vertex -20 0 0
    endloop
  endfacet
  facet normal 0 0 -1
    outer loop
      vertex -20 0 0
      vertex 0 20 0
      vertex 14.1421 14.1421 0
    endloop
  endfacet
  facet normal -0 0 -1
    outer loop
      vertex -20 0 0
      vertex 14.1421 14.1421 0
      vertex 20 0 0
    endloop
  endfacet
  facet normal 0 0 -1
    outer loop
      vertex -20 0 0
      vertex 20 0 0
      vertex 14.1421 -14.1421 0
    endloop
  endfacet
  facet normal 0 0 -1
    outer loop
      vertex -20 0 0
      vertex 14.1421 -14.1421 0
      vertex 0 -20 0
    endloop
  endfacet
  facet normal 0 0 -1
    outer loop
      vertex -20 0 0
      vertex 0 -20 0
      vertex -14.1421 -14.1421 0
    endloop
  endfacet
  facet normal 0.92388 0.382683 0
    outer loop
      vertex 14.1421 14.1421 0
      vertex 14.1421 14.1421 40
      vertex 20 0 40
    endloop
  endfacet
  facet normal 0.92388 0.382683 0
    outer loop
      vertex 20 0 0
      vertex 14.1421 14.1421 0
      vertex 20 0 40
    endloop
  endfacet
  facet normal 0.382683 0.92388 -0
    outer loop
      vertex 0 20 40
      vertex 14.1421 14.1421 40
      vertex 0 20 0
    endloop
  endfacet
  facet normal 0.382683 0.92388 0
    outer loop
      vertex 0 20 0
      vertex 14.1421 14.1421 40
      vertex 14.1421 14.1421 0
    endloop
  endfacet
  facet normal -0.92388 0.382683 0
    outer loop
      vertex -20 0 40
      vertex -14.1421 14.1421 40
      vertex -20 0 0
    endloop
  endfacet
  facet normal -0.92388 0.382683 0
    outer loop
      vertex -20 0 0
      vertex -14.1421 14.1421 40
      vertex -14.1421 14.1421 0
    endloop
  endfacet
  facet normal -0.92388 -0.382683 -0
    outer loop
      vertex -14.1421 -14.1421 0
      vertex -14.1421 -14.1421 40
      vertex -20 0 0
    endloop
  endfacet
  facet normal -0.92388 -0.382683 -0
    outer loop
      vertex -20 0 0
      vertex -14.1421 -14.1421 40
      vertex -20 0 40
    endloop
  endfacet
  facet normal -0.382683 -0.92388 0
    outer loop
      vertex -14.1421 -14.1421 0
      vertex 0 -20 0
      vertex 0 -20 40
    endloop
  endfacet
  facet normal -0.382683 -0.92388 0
    outer loop
      vertex -14.1421 -14.1421 40
      vertex -14.1421 -14.1421 0
      vertex 0 -20 40
    endloop
  endfacet
  facet normal 0.382683 -0.92388 0
    outer loop
      vertex 0 -20 0
      vertex 14.1421 -14.1421 0
      vertex 14.1421 -14.1421 40
    endloop
  endfacet
  facet normal 0.382683 -0.92388 0
    outer loop
      vertex 0 -20 40
      vertex 0 -20 0
      vertex 14.1421 -14.1421 40
    endloop
  endfacet
  facet normal 0.92388 -0.382683 0
    outer loop
      vertex 14.1421 -14.1421 0
      vertex 20 0 0
      vertex 20 0 40
    endloop
  endfacet
  facet normal 0.92388 -0.382683 0
    outer loop
      vertex 14.1421 -14.1421 40
      vertex 14.1421 -14.1421 0
      vertex 20 0 40
    endloop
  endfacet
  facet normal -0.382683 0.92388 0
    outer loop
      vertex -14.1421 14.1421 40
      vertex 0 20 40
      vertex -14.1421 14.1421 0
    endloop
  endfacet
  facet normal -0.382683 0.92388 0
    outer loop
      vertex -14.1421 14.1421 0
      vertex 0 20 40
      vertex 0 20 0
    endloop
  endfacet
  facet normal 0 0 1
    outer loop
      vertex -20 0 40
      vertex -14.1421 -14.1421 40
      vertex 0 -20 40
    endloop
  endfacet
  facet normal 0 0 1
    outer loop
      vertex 20 0 40
      vertex -20 0 40
      vertex 14.1421 -14.1421 40
    endloop
  endfacet
  facet normal -0 0 1
    outer loop
      vertex 14.1421 -14.1421 40
      vertex -20 0 40
      vertex 0 -20 40
    endloop
  endfacet
  facet normal 0 -0 1
    outer loop
      vertex 14.1421 14.1421 40
      vertex -20 0 40
      vertex 20 0 40
    endloop
  endfacet
  facet normal 0 -0 1
    outer loop
      vertex 0 20 40
      vertex -20 0 40
      vertex 14.1421 14.1421 40
    endloop
  endfacet
  facet normal 0 -0 1
    outer loop
      vertex -14.1421 14.1421 40
      vertex -20 0 40
      vertex 0 20 40
    endloop
  endfacet
endsolid OpenSCAD_Model
