solid OpenSCAD_Model
  facet normal -1 0 0
    outer loop
      vertex 0 -10 12
      vertex 0 -6.1 12
      vertex 0 -10 0
    endloop
  endfacet
  facet normal -1 0 0
    outer loop
      vertex 0 -10 0
      vertex 0 -6.1 12
      vertex 0 -6.1 1
    endloop
  endfacet
  facet normal -1 0 0
    outer loop
      vertex 0 -10 0
      vertex 0 -6.1 1
      vertex 0 -3.9 1
    endloop
  endfacet
  facet normal -1 0 -0
    outer loop
      vertex 0 -3.9 1
      vertex 0 -3.9 12
      vertex 0 0 12
    endloop
  endfacet
  facet normal -1 -0 0
    outer loop
      vertex 0 -3.9 1
      vertex 0 0 12
      vertex 0 0 0
    endloop
  endfacet
  facet normal -1 0 0
    outer loop
      vertex 0 -3.9 1
      vertex 0 0 0
      vertex 0 -10 0
    endloop
  endfacet
  facet normal 0 0 -1
    outer loop
      vertex 0 0 0
      vertex 3 0 0
      vertex 0 -10 0
    endloop
  endfacet
  facet normal 0 0 -1
    outer loop
      vertex 0 -10 0
      vertex 3 0 0
      vertex 3 -2.06329 0
    endloop
  endfacet
  facet normal 0 0 -1
    outer loop
      vertex 0 -10 0
      vertex 3 -2.06329 0
      vertex 6.5 -2.06329 0
    endloop
  endfacet
  facet normal 0 -0 -1
    outer loop
      vertex 6.5 -2.06329 0
      vertex 6.5 0 0
      vertex 9 0 0
    endloop
  endfacet
  facet normal -0 0 -1
    outer loop
      vertex 6.5 -2.06329 0
      vertex 9 0 0
      vertex 0 -10 0
    endloop
  endfacet
  facet normal 0 0 -1
    outer loop
      vertex 0 -10 0
      vertex 9 0 0
      vertex 9 -2.06329 0
    endloop
  endfacet
  facet normal 0 0 -1
    outer loop
      vertex 3 -7.93671 0
      vertex 9 -2.06329 0
      vertex 12.5 -2.06329 0
    endloop
  endfacet
  facet normal 0 -0 -1
    outer loop
      vertex 12.5 -2.06329 0
      vertex 12.5 0 0
      vertex 50 0 0
    endloop
  endfacet
  facet normal -0 0 -1
    outer loop
      vertex 12.5 -2.06329 0
      vertex 50 0 0
      vertex 21 -5 0
    endloop
  endfacet
  facet normal 0 0 -1
    outer loop
      vertex 3 -7.93671 0
      vertex 12.5 -2.06329 0
      vertex 6.5 -7.93671 0
    endloop
  endfacet
  facet normal 0 0 -1
    outer loop
      vertex 12.5 -7.93671 0
      vertex 17.5451 -9.75528 0
      vertex 12.5 -10 0
    endloop
  endfacet
  facet normal -0 0 -1
    outer loop
      vertex 12.5 -7.93671 0
      vertex 20.7553 -6.54508 0
      vertex 20.0451 -7.93893 0
    endloop
  endfacet
  facet normal 0 0 -1
    outer loop
      vertex 12.5 -7.93671 0
      vertex 18.9389 -9.04508 0
      vertex 17.5451 -9.75528 0
    endloop
  endfacet
  facet normal 0 0 -1
    outer loop
      vertex 12.5 -7.93671 0
      vertex 20.0451 -7.93893 0
      vertex 18.9389 -9.04508 0
    endloop
  endfacet
  facet normal 0 0 -1
    outer loop
      vertex 9 -10 0
      vertex 6.5 -10 0
      vertex 9 -7.93671 0
    endloop
  endfacet
  facet normal -0 0 -1
    outer loop
      vertex 12.5 -10 0
      vertex 17.5451 -9.75528 0
      vertex 16 -10 0
    endloop
  endfacet
  facet normal 0 0 -1
    outer loop
      vertex 9 -7.93671 0
      vertex 20.7553 -6.54508 0
      vertex 12.5 -7.93671 0
    endloop
  endfacet
  facet normal 0 0 -1
    outer loop
      vertex 12.5 -2.06329 0
      vertex 21 -5 0
      vertex 6.5 -7.93671 0
    endloop
  endfacet
  facet normal 0 0 -1
    outer loop
      vertex 0 -10 0
      vertex 9 -2.06329 0
      vertex 3 -7.93671 0
    endloop
  endfacet
  facet normal 0 0 -1
    outer loop
      vertex 3 -10 0
      vertex 0 -10 0
      vertex 3 -7.93671 0
    endloop
  endfacet
  facet normal -0 0 -1
    outer loop
      vertex 21 -5 0
      vertex 50 0 0
      vertex 50 -5 0
    endloop
  endfacet
  facet normal 0 -0 -1
    outer loop
      vertex 20.7553 -6.54508 0
      vertex 9 -7.93671 0
      vertex 21 -5 0
    endloop
  endfacet
  facet normal 0 0 -1
    outer loop
      vertex 6.5 -7.93671 0
      vertex 9 -7.93671 0
      vertex 6.5 -10 0
    endloop
  endfacet
  facet normal -0 0 -1
    outer loop
      vertex 6.5 -7.93671 0
      vertex 21 -5 0
      vertex 9 -7.93671 0
    endloop
  endfacet
  facet normal 0 1 -0
    outer loop
      vertex 0 0 12
      vertex 3 0 12
      vertex 0 0 0
    endloop
  endfacet
  facet normal 0 1 0
    outer loop
      vertex 0 0 0
      vertex 3 0 12
      vertex 3 0 9.18024
    endloop
  endfacet
  facet normal 0 1 0
    outer loop
      vertex 0 0 0
      vertex 3 0 9.18024
      vertex 6.5 0 9.18024
    endloop
  endfacet
  facet normal 0 1 0
    outer loop
      vertex 6.5 0 9.18024
      vertex 6.5 0 12
      vertex 9 0 12
    endloop
  endfacet
  facet normal 0 1 -0
    outer loop
      vertex 6.5 0 9.18024
      vertex 9 0 12
      vertex 0 0 0
    endloop
  endfacet
  facet normal 0 1 0
    outer loop
      vertex 0 0 0
      vertex 9 0 12
      vertex 9 0 9.18024
    endloop
  endfacet
  facet normal 0 1 0
    outer loop
      vertex 3 0 2.81976
      vertex 9 0 9.18024
      vertex 12.5 0 9.18024
    endloop
  endfacet
  facet normal 0 1 0
    outer loop
      vertex 12.5 0 9.18024
      vertex 12.5 0 12
      vertex 50 0 12
    endloop
  endfacet
  facet normal -0 1 0
    outer loop
      vertex 24 0 4
      vertex 9 0 2.81976
      vertex 24 0 8
    endloop
  endfacet
  facet normal 0 1 0
    outer loop
      vertex 46 0 4
      vertex 50 0 12
      vertex 50 0 0
    endloop
  endfacet
  facet normal 0 1 0
    outer loop
      vertex 3 0 2.81976
      vertex 12.5 0 9.18024
      vertex 6.5 0 2.81976
    endloop
  endfacet
  facet normal 0 1 -0
    outer loop
      vertex 6.5 0 2.81976
      vertex 9 0 2.81976
      vertex 6.5 0 0
    endloop
  endfacet
  facet normal 0 1 0
    outer loop
      vertex 24 0 4
      vertex 12.5 0 2.81976
      vertex 9 0 2.81976
    endloop
  endfacet
  facet normal 0 1 0
    outer loop
      vertex 12.5 0 9.18024
      vertex 9 0 2.81976
      vertex 6.5 0 2.81976
    endloop
  endfacet
  facet normal 0 1 0
    outer loop
      vertex 0 0 0
      vertex 9 0 9.18024
      vertex 3 0 2.81976
    endloop
  endfacet
  facet normal -0 1 0
    outer loop
      vertex 3 0 0
      vertex 0 0 0
      vertex 3 0 2.81976
    endloop
  endfacet
  facet normal 0 1 0
    outer loop
      vertex 46 0 4
      vertex 12.5 0 0
      vertex 24 0 4
    endloop
  endfacet
  facet normal 0 1 -0
    outer loop
      vertex 12.5 0 2.81976
      vertex 24 0 4
      vertex 12.5 0 0
    endloop
  endfacet
  facet normal 0 1 -0
    outer loop
      vertex 46 0 8
      vertex 50 0 12
      vertex 46 0 4
    endloop
  endfacet
  facet normal 0 1 0
    outer loop
      vertex 12.5 0 0
      vertex 46 0 4
      vertex 50 0 0
    endloop
  endfacet
  facet normal 0 1 0
    outer loop
      vertex 24 0 8
      vertex 50 0 12
      vertex 46 0 8
    endloop
  endfacet
  facet normal 0 1 0
    outer loop
      vertex 12.5 0 9.18024
      vertex 50 0 12
      vertex 24 0 8
    endloop
  endfacet
  facet normal 0 1 -0
    outer loop
      vertex 12.5 0 9.18024
      vertex 24 0 8
      vertex 9 0 2.81976
    endloop
  endfacet
  facet normal -0 1 0
    outer loop
      vertex 9 0 0
      vertex 6.5 0 0
      vertex 9 0 2.81976
    endloop
  endfacet
  facet normal -0 -1 0
    outer loop
      vertex 0 -10 0
      vertex 3 -10 0
      vertex 3 -10 2.81976
    endloop
  endfacet
  facet normal 0 0 -0
    outer loop
      vertex 9 -10 2.81976
      vertex 12.5 -10 2.81976
      vertex 6.5 -10 2.81976
    endloop
  endfacet
  facet normal 0 -1 0
    outer loop
      vertex 6.5 -10 9.18024
      vertex 3 -10 9.18024
      vertex 0 -10 0
    endloop
  endfacet
  facet normal -0 -1 -0
    outer loop
      vertex 6.5 -10 0
      vertex 9 -10 0
      vertex 6.5 -10 2.81976
    endloop
  endfacet
  facet normal 0 -1 0
    outer loop
      vertex 9 -10 0
      vertex 9 -10 2.81976
      vertex 6.5 -10 2.81976
    endloop
  endfacet
  facet normal 0 -1 -0
    outer loop
      vertex 12.5 -10 2.81976
      vertex 16 -10 12
      vertex 6.5 -10 2.81976
    endloop
  endfacet
  facet normal 0 -1 0
    outer loop
      vertex 9 -10 9.18024
      vertex 9 -10 12
      vertex 0 -10 0
    endloop
  endfacet
  facet normal -0 -1 -0
    outer loop
      vertex 12.5 -10 0
      vertex 16 -10 0
      vertex 12.5 -10 2.81976
    endloop
  endfacet
  facet normal 0 -1 0
    outer loop
      vertex 16 -10 0
      vertex 16 -10 12
      vertex 12.5 -10 2.81976
    endloop
  endfacet
  facet normal 0 -1 -0
    outer loop
      vertex 3 -10 2.81976
      vertex 9 -10 9.18024
      vertex 0 -10 0
    endloop
  endfacet
  facet normal 0 -1 -0
    outer loop
      vertex 6.5 -10 2.81976
      vertex 12.5 -10 9.18024
      vertex 3 -10 2.81976
    endloop
  endfacet
  facet normal 0 -1 0
    outer loop
      vertex 6.5 -10 2.81976
      vertex 16 -10 12
      vertex 12.5 -10 9.18024
    endloop
  endfacet
  facet normal 0 -1 0
    outer loop
      vertex 3 -10 9.18024
      vertex 3 -10 12
      vertex 0 -10 0
    endloop
  endfacet
  facet normal 0 -1 0
    outer loop
      vertex 9 -10 12
      vertex 6.5 -10 9.18024
      vertex 0 -10 0
    endloop
  endfacet
  facet normal 0 -1 0
    outer loop
      vertex 9 -10 12
      vertex 6.5 -10 12
      vertex 6.5 -10 9.18024
    endloop
  endfacet
  facet normal 0 -1 0
    outer loop
      vertex 3 -10 12
      vertex 0 -10 12
      vertex 0 -10 0
    endloop
  endfacet
  facet normal 0 -1 0
    outer loop
      vertex 12.5 -10 12
      vertex 12.5 -10 9.18024
      vertex 16 -10 12
    endloop
  endfacet
  facet normal 0 -1 0
    outer loop
      vertex 12.5 -10 9.18024
      vertex 9 -10 9.18024
      vertex 3 -10 2.81976
    endloop
  endfacet
  facet normal 0 0 -0
    outer loop
      vertex 6.5 -7.93671 12
      vertex 9 -7.93671 12
      vertex 3 -7.93671 12
    endloop
  endfacet
  facet normal 0 0 1
    outer loop
      vertex 0 -10 12
      vertex 3 -10 12
      vertex 3 -7.93671 12
    endloop
  endfacet
  facet normal 0 0 1
    outer loop
      vertex 16.1 -7.5 12
      vertex 9 -7.93671 12
      vertex 12.5 -7.93671 12
    endloop
  endfacet
  facet normal 0 0 1
    outer loop
      vertex 6.5 -2.06329 12
      vertex 4.75 -2.5 12
      vertex 4.75 -3.9 12
    endloop
  endfacet
  facet normal 0 0 1
    outer loop
      vertex 6.5 -10 12
      vertex 9 -10 12
      vertex 6.5 -7.93671 12
    endloop
  endfacet
  facet normal 0 0 1
    outer loop
      vertex 9 -10 12
      vertex 9 -7.93671 12
      vertex 6.5 -7.93671 12
    endloop
  endfacet
  facet normal 0 0 1
    outer loop
      vertex 12.5 -10 12
      vertex 16 -10 12
      vertex 12.5 -7.93671 12
    endloop
  endfacet
  facet normal 0 0 1
    outer loop
      vertex 16 -10 12
      vertex 17.5451 -9.75528 12
      vertex 12.5 -7.93671 12
    endloop
  endfacet
  facet normal 0 0 1
    outer loop
      vertex 17.5451 -9.75528 12
      vertex 18.9389 -9.04508 12
      vertex 12.5 -7.93671 12
    endloop
  endfacet
  facet normal 0 0 1
    outer loop
      vertex 18.9389 -9.04508 12
      vertex 20.0451 -7.93893 12
      vertex 12.5 -7.93671 12
    endloop
  endfacet
  facet normal 0 0 1
    outer loop
      vertex 18 -5 12
      vertex 21 -5 12
      vertex 50 0 12
    endloop
  endfacet
  facet normal -0 0 1
    outer loop
      vertex 50 -5 12
      vertex 50 0 12
      vertex 21 -5 12
    endloop
  endfacet
  facet normal 0 0 1
    outer loop
      vertex 6.5 -2.06329 12
      vertex 3 -2.06329 12
      vertex 4.75 -2.5 12
    endloop
  endfacet
  facet normal 0 0 1
    outer loop
      vertex 11.1 -2.5 12
      vertex 16.1 -2.5 12
      vertex 12.5 -2.06329 12
    endloop
  endfacet
  facet normal 0 0 1
    outer loop
      vertex 50 0 12
      vertex 12.5 0 12
      vertex 12.5 -2.06329 12
    endloop
  endfacet
  facet normal 0 0 1
    outer loop
      vertex 6.25 -2.5 12
      vertex 9.75 -2.5 12
      vertex 9 -2.06329 12
    endloop
  endfacet
  facet normal 0 0 1
    outer loop
      vertex 9 0 12
      vertex 6.5 0 12
      vertex 6.5 -2.06329 12
    endloop
  endfacet
  facet normal 0 0 1
    outer loop
      vertex 4.75 -3.9 12
      vertex 6.25 -2.5 12
      vertex 6.5 -2.06329 12
    endloop
  endfacet
  facet normal 0 0 1
    outer loop
      vertex 3 0 12
      vertex 0 0 12
      vertex 0 -3.9 12
    endloop
  endfacet
  facet normal 0 0 1
    outer loop
      vertex 1.25 -2.5 12
      vertex 0 -3.9 12
      vertex 1.25 -3.9 12
    endloop
  endfacet
  facet normal -0 0 1
    outer loop
      vertex 11.1 -3.9 12
      vertex 11.1 -2.5 12
      vertex 9.75 -3.9 12
    endloop
  endfacet
  facet normal 0 0 1
    outer loop
      vertex 3 0 12
      vertex 0 -3.9 12
      vertex 1.25 -2.5 12
    endloop
  endfacet
  facet normal -0 0 1
    outer loop
      vertex 1.25 -7.5 12
      vertex 1.25 -6.1 12
      vertex 0 -10 12
    endloop
  endfacet
  facet normal 0 0 1
    outer loop
      vertex 6.25 -2.5 12
      vertex 9 -2.06329 12
      vertex 9 0 12
    endloop
  endfacet
  facet normal 0 -0 1
    outer loop
      vertex 9.75 -2.5 12
      vertex 9.75 -3.9 12
      vertex 11.1 -2.5 12
    endloop
  endfacet
  facet normal -0 0 1
    outer loop
      vertex 6.25 -3.9 12
      vertex 6.25 -2.5 12
      vertex 4.75 -3.9 12
    endloop
  endfacet
  facet normal 0 0 1
    outer loop
      vertex 9 0 12
      vertex 6.5 -2.06329 12
      vertex 6.25 -2.5 12
    endloop
  endfacet
  facet normal 0 0 1
    outer loop
      vertex 16.9695 -2.97746 12
      vertex 17.5225 -3.53054 12
      vertex 50 0 12
    endloop
  endfacet
  facet normal 0 0 1
    outer loop
      vertex 12.5 -2.06329 12
      vertex 9.75 -2.5 12
      vertex 11.1 -2.5 12
    endloop
  endfacet
  facet normal 0 -0 1
    outer loop
      vertex 18 -5 12
      vertex 17.8776 -5.77254 12
      vertex 21 -5 12
    endloop
  endfacet
  facet normal 0 0 1
    outer loop
      vertex 50 0 12
      vertex 12.5 -2.06329 12
      vertex 16.1 -2.5 12
    endloop
  endfacet
  facet normal 0 0 1
    outer loop
      vertex 4.75 -7.5 12
      vertex 1.25 -7.5 12
      vertex 3 -7.93671 12
    endloop
  endfacet
  facet normal 0 0 1
    outer loop
      vertex 50 0 12
      vertex 16.1 -2.5 12
      vertex 16.1 -2.59503 12
    endloop
  endfacet
  facet normal 0 -0 1
    outer loop
      vertex 17.5225 -6.46946 12
      vertex 16.9695 -7.02254 12
      vertex 20.7553 -6.54508 12
    endloop
  endfacet
  facet normal 0 0 1
    outer loop
      vertex 50 0 12
      vertex 16.1 -2.59503 12
      vertex 16.2725 -2.62236 12
    endloop
  endfacet
  facet normal 0 0 1
    outer loop
      vertex 50 0 12
      vertex 16.2725 -2.62236 12
      vertex 16.9695 -2.97746 12
    endloop
  endfacet
  facet normal 0 0 1
    outer loop
      vertex 50 0 12
      vertex 17.5225 -3.53054 12
      vertex 17.8776 -4.22746 12
    endloop
  endfacet
  facet normal 0 0 1
    outer loop
      vertex 50 0 12
      vertex 17.8776 -4.22746 12
      vertex 18 -5 12
    endloop
  endfacet
  facet normal 0 0 1
    outer loop
      vertex 20.7553 -6.54508 12
      vertex 21 -5 12
      vertex 17.8776 -5.77254 12
    endloop
  endfacet
  facet normal 0 0 1
    outer loop
      vertex 16.1 -7.5 12
      vertex 11.1 -7.5 12
      vertex 9 -7.93671 12
    endloop
  endfacet
  facet normal 0 0 1
    outer loop
      vertex 20.7553 -6.54508 12
      vertex 17.8776 -5.77254 12
      vertex 17.5225 -6.46946 12
    endloop
  endfacet
  facet normal 0 0 1
    outer loop
      vertex 20.0451 -7.93893 12
      vertex 20.7553 -6.54508 12
      vertex 16.2725 -7.37764 12
    endloop
  endfacet
  facet normal 0 0 1
    outer loop
      vertex 9.75 -7.5 12
      vertex 6.25 -7.5 12
      vertex 3 -7.93671 12
    endloop
  endfacet
  facet normal 0 0 1
    outer loop
      vertex 20.0451 -7.93893 12
      vertex 16.2725 -7.37764 12
      vertex 16.1 -7.40497 12
    endloop
  endfacet
  facet normal 0 0 1
    outer loop
      vertex 20.0451 -7.93893 12
      vertex 16.1 -7.5 12
      vertex 12.5 -7.93671 12
    endloop
  endfacet
  facet normal 0 0 1
    outer loop
      vertex 20.0451 -7.93893 12
      vertex 16.1 -7.40497 12
      vertex 16.1 -7.5 12
    endloop
  endfacet
  facet normal -0 0 1
    outer loop
      vertex 9 -7.93671 12
      vertex 11.1 -7.5 12
      vertex 3 -7.93671 12
    endloop
  endfacet
  facet normal 0 -0 1
    outer loop
      vertex 16.9695 -7.02254 12
      vertex 16.2725 -7.37764 12
      vertex 20.7553 -6.54508 12
    endloop
  endfacet
  facet normal 0 0 1
    outer loop
      vertex 11.1 -7.5 12
      vertex 9.75 -7.5 12
      vertex 3 -7.93671 12
    endloop
  endfacet
  facet normal -0 0 1
    outer loop
      vertex 6.25 -7.5 12
      vertex 6.25 -6.1 12
      vertex 4.75 -7.5 12
    endloop
  endfacet
  facet normal 0 -0 1
    outer loop
      vertex 9.75 -6.1 12
      vertex 9.75 -7.5 12
      vertex 11.1 -6.1 12
    endloop
  endfacet
  facet normal 0 0 1
    outer loop
      vertex 1.25 -6.1 12
      vertex 0 -6.1 12
      vertex 0 -10 12
    endloop
  endfacet
  facet normal -0 0 1
    outer loop
      vertex 3 -7.93671 12
      vertex 1.25 -7.5 12
      vertex 0 -10 12
    endloop
  endfacet
  facet normal 0 0 1
    outer loop
      vertex 6.25 -7.5 12
      vertex 4.75 -7.5 12
      vertex 3 -7.93671 12
    endloop
  endfacet
  facet normal 0 -0 1
    outer loop
      vertex 4.75 -6.1 12
      vertex 4.75 -7.5 12
      vertex 6.25 -6.1 12
    endloop
  endfacet
  facet normal 0 0 1
    outer loop
      vertex 12.5 -2.06329 12
      vertex 9 -2.06329 12
      vertex 9.75 -2.5 12
    endloop
  endfacet
  facet normal 0 0 1
    outer loop
      vertex 1.25 -2.5 12
      vertex 3 -2.06329 12
      vertex 3 0 12
    endloop
  endfacet
  facet normal 0 0 1
    outer loop
      vertex 1.25 -2.5 12
      vertex 4.75 -2.5 12
      vertex 3 -2.06329 12
    endloop
  endfacet
  facet normal -0 0 1
    outer loop
      vertex 11.1 -7.5 12
      vertex 11.1 -6.1 12
      vertex 9.75 -7.5 12
    endloop
  endfacet
  facet normal -0 -1 0
    outer loop
      vertex 0 -3.9 1
      vertex 1.25 -3.9 1
      vertex 1.25 -3.9 12
    endloop
  endfacet
  facet normal 0 -1 0
    outer loop
      vertex 0 -3.9 12
      vertex 0 -3.9 1
      vertex 1.25 -3.9 12
    endloop
  endfacet
  facet normal -0 0 1
    outer loop
      vertex 4.75 -7.5 1
      vertex 1.25 -6.1 1
      vertex 1.25 -7.5 1
    endloop
  endfacet
  facet normal 0 0 1
    outer loop
      vertex 4.75 -6.1 1
      vertex 1.25 -6.1 1
      vertex 4.75 -7.5 1
    endloop
  endfacet
  facet normal 0 0 1
    outer loop
      vertex 0 -6.1 1
      vertex 1.25 -6.1 1
      vertex 17.8776 -5.77254 1
    endloop
  endfacet
  facet normal 0 0 1
    outer loop
      vertex 17.8776 -5.77254 1
      vertex 1.25 -6.1 1
      vertex 4.75 -6.1 1
    endloop
  endfacet
  facet normal 0 0 1
    outer loop
      vertex 17.8776 -5.77254 1
      vertex 4.75 -6.1 1
      vertex 6.25 -6.1 1
    endloop
  endfacet
  facet normal -0 0 1
    outer loop
      vertex 9.75 -7.5 1
      vertex 6.25 -6.1 1
      vertex 6.25 -7.5 1
    endloop
  endfacet
  facet normal 0 0 1
    outer loop
      vertex 9.75 -6.1 1
      vertex 6.25 -6.1 1
      vertex 9.75 -7.5 1
    endloop
  endfacet
  facet normal 0 0 1
    outer loop
      vertex 17.8776 -5.77254 1
      vertex 6.25 -6.1 1
      vertex 9.75 -6.1 1
    endloop
  endfacet
  facet normal 0 0 1
    outer loop
      vertex 17.8776 -5.77254 1
      vertex 9.75 -6.1 1
      vertex 11.1 -6.1 1
    endloop
  endfacet
  facet normal -0 0 1
    outer loop
      vertex 16.1 -7.5 1
      vertex 11.1 -6.1 1
      vertex 11.1 -7.5 1
    endloop
  endfacet
  facet normal -0 0 1
    outer loop
      vertex 16.1 -7.40497 1
      vertex 11.1 -6.1 1
      vertex 16.1 -7.5 1
    endloop
  endfacet
  facet normal -0 0 1
    outer loop
      vertex 16.2725 -7.37764 1
      vertex 11.1 -6.1 1
      vertex 16.1 -7.40497 1
    endloop
  endfacet
  facet normal -0 0 1
    outer loop
      vertex 16.9695 -7.02254 1
      vertex 11.1 -6.1 1
      vertex 16.2725 -7.37764 1
    endloop
  endfacet
  facet normal -0 0 1
    outer loop
      vertex 17.5225 -6.46946 1
      vertex 11.1 -6.1 1
      vertex 16.9695 -7.02254 1
    endloop
  endfacet
  facet normal 0 0 1
    outer loop
      vertex 17.8776 -5.77254 1
      vertex 11.1 -6.1 1
      vertex 17.5225 -6.46946 1
    endloop
  endfacet
  facet normal 0 0 1
    outer loop
      vertex 18 -5 1
      vertex 0 -6.1 1
      vertex 17.8776 -5.77254 1
    endloop
  endfacet
  facet normal 0 -0 1
    outer loop
      vertex 17.8776 -4.22746 1
      vertex 0 -6.1 1
      vertex 18 -5 1
    endloop
  endfacet
  facet normal 0 -0 1
    outer loop
      vertex 17.5225 -3.53054 1
      vertex 0 -6.1 1
      vertex 17.8776 -4.22746 1
    endloop
  endfacet
  facet normal 0 -0 1
    outer loop
      vertex 16.9695 -2.97746 1
      vertex 0 -6.1 1
      vertex 17.5225 -3.53054 1
    endloop
  endfacet
  facet normal 0 -0 1
    outer loop
      vertex 11.1 -3.9 1
      vertex 0 -6.1 1
      vertex 16.9695 -2.97746 1
    endloop
  endfacet
  facet normal 0 0 1
    outer loop
      vertex 9.75 -3.9 1
      vertex 6.25 -3.9 1
      vertex 0 -6.1 1
    endloop
  endfacet
  facet normal -0 0 1
    outer loop
      vertex 9.75 -3.9 1
      vertex 9.75 -2.5 1
      vertex 6.25 -3.9 1
    endloop
  endfacet
  facet normal 0 -0 1
    outer loop
      vertex 16.2725 -2.62236 1
      vertex 11.1 -3.9 1
      vertex 16.9695 -2.97746 1
    endloop
  endfacet
  facet normal 0 -0 1
    outer loop
      vertex 6.25 -2.5 1
      vertex 6.25 -3.9 1
      vertex 9.75 -2.5 1
    endloop
  endfacet
  facet normal -0 0 1
    outer loop
      vertex 4.75 -3.9 1
      vertex 4.75 -2.5 1
      vertex 0 -6.1 1
    endloop
  endfacet
  facet normal 0 0 1
    outer loop
      vertex 6.25 -3.9 1
      vertex 4.75 -3.9 1
      vertex 0 -6.1 1
    endloop
  endfacet
  facet normal 0 0 1
    outer loop
      vertex 1.25 -3.9 1
      vertex 0 -3.9 1
      vertex 0 -6.1 1
    endloop
  endfacet
  facet normal 0 -0 1
    outer loop
      vertex 1.25 -3.9 1
      vertex 0 -6.1 1
      vertex 4.75 -2.5 1
    endloop
  endfacet
  facet normal 0 -0 1
    outer loop
      vertex 1.25 -2.5 1
      vertex 1.25 -3.9 1
      vertex 4.75 -2.5 1
    endloop
  endfacet
  facet normal 0 0 1
    outer loop
      vertex 11.1 -3.9 1
      vertex 9.75 -3.9 1
      vertex 0 -6.1 1
    endloop
  endfacet
  facet normal 0 0 1
    outer loop
      vertex 11.1 -2.5 1
      vertex 16.1 -2.59503 1
      vertex 16.1 -2.5 1
    endloop
  endfacet
  facet normal 0 0 1
    outer loop
      vertex 11.1 -2.5 1
      vertex 16.2725 -2.62236 1
      vertex 16.1 -2.59503 1
    endloop
  endfacet
  facet normal 0 -0 1
    outer loop
      vertex 11.1 -2.5 1
      vertex 11.1 -3.9 1
      vertex 16.2725 -2.62236 1
    endloop
  endfacet
  facet normal 0 1 -0
    outer loop
      vertex 0 -6.1 12
      vertex 1.25 -6.1 12
      vertex 0 -6.1 1
    endloop
  endfacet
  facet normal 0 1 0
    outer loop
      vertex 0 -6.1 1
      vertex 1.25 -6.1 12
      vertex 1.25 -6.1 1
    endloop
  endfacet
  facet normal 1 0 -0
    outer loop
      vertex 3 -8.33862 0.255979
      vertex 3 -10 0
      vertex 3 -7.93671 0
    endloop
  endfacet
  facet normal 1 0 -0
    outer loop
      vertex 3 -9.59522 1.82673
      vertex 3 -10 0
      vertex 3 -8.33862 0.255979
    endloop
  endfacet
  facet normal 1 0 -0
    outer loop
      vertex 3 -10 2.81976
      vertex 3 -10 0
      vertex 3 -9.59522 1.82673
    endloop
  endfacet
  facet normal 1.36323e-16 -0.537201 -0.843454
    outer loop
      vertex 3 -7.93671 0
      vertex 6.5 -7.93671 0
      vertex 3 -8.33862 0.255979
    endloop
  endfacet
  facet normal 4.01324e-17 -0.537201 -0.843454
    outer loop
      vertex 3 -8.33862 0.255979
      vertex 6.5 -7.93671 0
      vertex 6.5 -8.33862 0.255979
    endloop
  endfacet
  facet normal -1 -0 0
    outer loop
      vertex 6.5 -10 0
      vertex 6.5 -8.33862 0.255979
      vertex 6.5 -7.93671 0
    endloop
  endfacet
  facet normal -1 0 0
    outer loop
      vertex 6.5 -9.59522 1.82673
      vertex 6.5 -8.33862 0.255979
      vertex 6.5 -10 0
    endloop
  endfacet
  facet normal -1 0 0
    outer loop
      vertex 6.5 -9.59522 1.82673
      vertex 6.5 -10 0
      vertex 6.5 -10 2.81976
    endloop
  endfacet
  facet normal 1 0 -0
    outer loop
      vertex 9 -8.33862 0.255979
      vertex 9 -10 0
      vertex 9 -7.93671 0
    endloop
  endfacet
  facet normal 1 0 -0
    outer loop
      vertex 9 -9.59522 1.82673
      vertex 9 -10 0
      vertex 9 -8.33862 0.255979
    endloop
  endfacet
  facet normal 1 0 -0
    outer loop
      vertex 9 -10 2.81976
      vertex 9 -10 0
      vertex 9 -9.59522 1.82673
    endloop
  endfacet
  facet normal 1.36323e-16 -0.537201 -0.843454
    outer loop
      vertex 9 -7.93671 0
      vertex 12.5 -7.93671 0
      vertex 9 -8.33862 0.255979
    endloop
  endfacet
  facet normal 4.01324e-17 -0.537201 -0.843454
    outer loop
      vertex 9 -8.33862 0.255979
      vertex 12.5 -7.93671 0
      vertex 12.5 -8.33862 0.255979
    endloop
  endfacet
  facet normal -1 -0 0
    outer loop
      vertex 12.5 -10 0
      vertex 12.5 -8.33862 0.255979
      vertex 12.5 -7.93671 0
    endloop
  endfacet
  facet normal -1 0 0
    outer loop
      vertex 12.5 -9.59522 1.82673
      vertex 12.5 -8.33862 0.255979
      vertex 12.5 -10 0
    endloop
  endfacet
  facet normal -1 0 0
    outer loop
      vertex 12.5 -9.59522 1.82673
      vertex 12.5 -10 0
      vertex 12.5 -10 2.81976
    endloop
  endfacet
  facet normal 0.156434 -0.987688 0
    outer loop
      vertex 16 -10 0
      vertex 17.5451 -9.75528 0
      vertex 17.5451 -9.75528 12
    endloop
  endfacet
  facet normal 0.156434 -0.987688 0
    outer loop
      vertex 16 -10 12
      vertex 16 -10 0
      vertex 17.5451 -9.75528 12
    endloop
  endfacet
  facet normal 0.453991 -0.891006 0
    outer loop
      vertex 17.5451 -9.75528 0
      vertex 18.9389 -9.04508 0
      vertex 18.9389 -9.04508 12
    endloop
  endfacet
  facet normal 0.453991 -0.891006 0
    outer loop
      vertex 17.5451 -9.75528 12
      vertex 17.5451 -9.75528 0
      vertex 18.9389 -9.04508 12
    endloop
  endfacet
  facet normal 0.707107 -0.707107 0
    outer loop
      vertex 18.9389 -9.04508 0
      vertex 20.0451 -7.93893 0
      vertex 20.0451 -7.93893 12
    endloop
  endfacet
  facet normal 0.707107 -0.707107 0
    outer loop
      vertex 18.9389 -9.04508 12
      vertex 18.9389 -9.04508 0
      vertex 20.0451 -7.93893 12
    endloop
  endfacet
  facet normal 0.891006 -0.453991 0
    outer loop
      vertex 20.0451 -7.93893 0
      vertex 20.7553 -6.54508 0
      vertex 20.7553 -6.54508 12
    endloop
  endfacet
  facet normal 0.891006 -0.453991 0
    outer loop
      vertex 20.0451 -7.93893 12
      vertex 20.0451 -7.93893 0
      vertex 20.7553 -6.54508 12
    endloop
  endfacet
  facet normal 0.987688 -0.156434 0
    outer loop
      vertex 20.7553 -6.54508 0
      vertex 21 -5 0
      vertex 21 -5 12
    endloop
  endfacet
  facet normal 0.987688 -0.156434 0
    outer loop
      vertex 20.7553 -6.54508 12
      vertex 20.7553 -6.54508 0
      vertex 21 -5 12
    endloop
  endfacet
  facet normal -0 -1 0
    outer loop
      vertex 46 -5 8
      vertex 50 -5 0
      vertex 50 -5 12
    endloop
  endfacet
  facet normal 0 -1 0
    outer loop
      vertex 21 -5 12
      vertex 21 -5 0
      vertex 24 -5 4
    endloop
  endfacet
  facet normal 0 -1 0
    outer loop
      vertex 21 -5 12
      vertex 24 -5 8
      vertex 50 -5 12
    endloop
  endfacet
  facet normal 0 -1 0
    outer loop
      vertex 21 -5 12
      vertex 24 -5 4
      vertex 24 -5 8
    endloop
  endfacet
  facet normal -0 -1 0
    outer loop
      vertex 24 -5 8
      vertex 46 -5 8
      vertex 50 -5 12
    endloop
  endfacet
  facet normal -0 -1 -0
    outer loop
      vertex 46 -5 4
      vertex 50 -5 0
      vertex 46 -5 8
    endloop
  endfacet
  facet normal -0 -1 0
    outer loop
      vertex 21 -5 0
      vertex 50 -5 0
      vertex 46 -5 4
    endloop
  endfacet
  facet normal 0 -1 0
    outer loop
      vertex 46 -5 4
      vertex 24 -5 4
      vertex 21 -5 0
    endloop
  endfacet
  facet normal 1 0 0
    outer loop
      vertex 50 -5 0
      vertex 50 0 0
      vertex 50 0 12
    endloop
  endfacet
  facet normal 1 0 -0
    outer loop
      vertex 50 -5 12
      vertex 50 -5 0
      vertex 50 0 12
    endloop
  endfacet
  facet normal -1 0 0
    outer loop
      vertex 12.5 0 0
      vertex 12.5 -2.06329 0
      vertex 12.5 -1.66138 0.255979
    endloop
  endfacet
  facet normal -1 0 0
    outer loop
      vertex 12.5 0 0
      vertex 12.5 -1.66138 0.255979
      vertex 12.5 -0.404783 1.82673
    endloop
  endfacet
  facet normal -1 0 0
    outer loop
      vertex 12.5 0 0
      vertex 12.5 -0.404783 1.82673
      vertex 12.5 0 2.81976
    endloop
  endfacet
  facet normal 4.01324e-17 0.537201 -0.843454
    outer loop
      vertex 12.5 -1.66138 0.255979
      vertex 12.5 -2.06329 0
      vertex 9 -1.66138 0.255979
    endloop
  endfacet
  facet normal 6.65695e-17 0.537201 -0.843454
    outer loop
      vertex 9 -1.66138 0.255979
      vertex 12.5 -2.06329 0
      vertex 9 -2.06329 0
    endloop
  endfacet
  facet normal 1 0 0
    outer loop
      vertex 9 0 0
      vertex 9 -0.404783 1.82673
      vertex 9 -1.66138 0.255979
    endloop
  endfacet
  facet normal 1 0 0
    outer loop
      vertex 9 0 2.81976
      vertex 9 -0.404783 1.82673
      vertex 9 0 0
    endloop
  endfacet
  facet normal 1 0 0
    outer loop
      vertex 9 -2.06329 0
      vertex 9 0 0
      vertex 9 -1.66138 0.255979
    endloop
  endfacet
  facet normal -1 0 0
    outer loop
      vertex 6.5 0 0
      vertex 6.5 -2.06329 0
      vertex 6.5 -1.66138 0.255979
    endloop
  endfacet
  facet normal -1 0 0
    outer loop
      vertex 6.5 0 0
      vertex 6.5 -1.66138 0.255979
      vertex 6.5 -0.404783 1.82673
    endloop
  endfacet
  facet normal -1 0 0
    outer loop
      vertex 6.5 0 0
      vertex 6.5 -0.404783 1.82673
      vertex 6.5 0 2.81976
    endloop
  endfacet
  facet normal 4.01324e-17 0.537201 -0.843454
    outer loop
      vertex 6.5 -1.66138 0.255979
      vertex 6.5 -2.06329 0
      vertex 3 -1.66138 0.255979
    endloop
  endfacet
  facet normal 6.65695e-17 0.537201 -0.843454
    outer loop
      vertex 3 -1.66138 0.255979
      vertex 6.5 -2.06329 0
      vertex 3 -2.06329 0
    endloop
  endfacet
  facet normal 1 0 0
    outer loop
      vertex 3 0 0
      vertex 3 -0.404783 1.82673
      vertex 3 -1.66138 0.255979
    endloop
  endfacet
  facet normal 1 0 0
    outer loop
      vertex 3 0 2.81976
      vertex 3 -0.404783 1.82673
      vertex 3 0 0
    endloop
  endfacet
  facet normal 1 0 0
    outer loop
      vertex 3 -2.06329 0
      vertex 3 0 0
      vertex 3 -1.66138 0.255979
    endloop
  endfacet
  facet normal 0 0.926023 -0.377466
    outer loop
      vertex 6.5 0 2.81976
      vertex 6.5 -0.404783 1.82673
      vertex 3 0 2.81976
    endloop
  endfacet
  facet normal 0 0.926023 -0.377466
    outer loop
      vertex 3 0 2.81976
      vertex 6.5 -0.404783 1.82673
      vertex 3 -0.404783 1.82673
    endloop
  endfacet
  facet normal 0 0.926023 -0.377466
    outer loop
      vertex 12.5 0 2.81976
      vertex 12.5 -0.404783 1.82673
      vertex 9 0 2.81976
    endloop
  endfacet
  facet normal 0 0.926023 -0.377466
    outer loop
      vertex 9 0 2.81976
      vertex 12.5 -0.404783 1.82673
      vertex 9 -0.404783 1.82673
    endloop
  endfacet
  facet normal -1 0 0
    outer loop
      vertex 12.5 0 12
      vertex 12.5 0 9.18024
      vertex 12.5 -0.404783 10.1733
    endloop
  endfacet
  facet normal -1 0 0
    outer loop
      vertex 12.5 0 12
      vertex 12.5 -0.404783 10.1733
      vertex 12.5 -1.66138 11.744
    endloop
  endfacet
  facet normal -1 0 0
    outer loop
      vertex 12.5 0 12
      vertex 12.5 -1.66138 11.744
      vertex 12.5 -2.06329 12
    endloop
  endfacet
  facet normal -0 0.926023 0.377466
    outer loop
      vertex 12.5 -0.404783 10.1733
      vertex 12.5 0 9.18024
      vertex 9 -0.404783 10.1733
    endloop
  endfacet
  facet normal -1.7748e-16 0.926023 0.377466
    outer loop
      vertex 9 -0.404783 10.1733
      vertex 12.5 0 9.18024
      vertex 9 0 9.18024
    endloop
  endfacet
  facet normal 1 0 0
    outer loop
      vertex 9 0 12
      vertex 9 -1.66138 11.744
      vertex 9 -0.404783 10.1733
    endloop
  endfacet
  facet normal 1 0 0
    outer loop
      vertex 9 -2.06329 12
      vertex 9 -1.66138 11.744
      vertex 9 0 12
    endloop
  endfacet
  facet normal 1 0 0
    outer loop
      vertex 9 0 9.18024
      vertex 9 0 12
      vertex 9 -0.404783 10.1733
    endloop
  endfacet
  facet normal -1 0 0
    outer loop
      vertex 6.5 0 12
      vertex 6.5 0 9.18024
      vertex 6.5 -0.404783 10.1733
    endloop
  endfacet
  facet normal -1 0 0
    outer loop
      vertex 6.5 0 12
      vertex 6.5 -0.404783 10.1733
      vertex 6.5 -1.66138 11.744
    endloop
  endfacet
  facet normal -1 0 0
    outer loop
      vertex 6.5 0 12
      vertex 6.5 -1.66138 11.744
      vertex 6.5 -2.06329 12
    endloop
  endfacet
  facet normal -0 0.926023 0.377466
    outer loop
      vertex 6.5 -0.404783 10.1733
      vertex 6.5 0 9.18024
      vertex 3 -0.404783 10.1733
    endloop
  endfacet
  facet normal -1.7748e-16 0.926023 0.377466
    outer loop
      vertex 3 -0.404783 10.1733
      vertex 6.5 0 9.18024
      vertex 3 0 9.18024
    endloop
  endfacet
  facet normal 1 0 0
    outer loop
      vertex 3 0 12
      vertex 3 -1.66138 11.744
      vertex 3 -0.404783 10.1733
    endloop
  endfacet
  facet normal 1 0 0
    outer loop
      vertex 3 -2.06329 12
      vertex 3 -1.66138 11.744
      vertex 3 0 12
    endloop
  endfacet
  facet normal 1 0 0
    outer loop
      vertex 3 0 9.18024
      vertex 3 0 12
      vertex 3 -0.404783 10.1733
    endloop
  endfacet
  facet normal 1 0 0
    outer loop
      vertex 24 -5 4
      vertex 24 0 4
      vertex 24 0 8
    endloop
  endfacet
  facet normal 1 0 -0
    outer loop
      vertex 24 -5 8
      vertex 24 -5 4
      vertex 24 0 8
    endloop
  endfacet
  facet normal 0 0 1
    outer loop
      vertex 24 -5 4
      vertex 46 -5 4
      vertex 46 0 4
    endloop
  endfacet
  facet normal 0 -0 1
    outer loop
      vertex 24 0 4
      vertex 24 -5 4
      vertex 46 0 4
    endloop
  endfacet
  facet normal 0 0 -1
    outer loop
      vertex 24 0 8
      vertex 46 0 8
      vertex 24 -5 8
    endloop
  endfacet
  facet normal -0 0 -1
    outer loop
      vertex 24 -5 8
      vertex 46 0 8
      vertex 46 -5 8
    endloop
  endfacet
  facet normal -1 0 0
    outer loop
      vertex 46 -5 8
      vertex 46 0 8
      vertex 46 -5 4
    endloop
  endfacet
  facet normal -1 -0 0
    outer loop
      vertex 46 -5 4
      vertex 46 0 8
      vertex 46 0 4
    endloop
  endfacet
  facet normal 1 0 -0
    outer loop
      vertex 3 -10 12
      vertex 3 -10 9.18024
      vertex 3 -9.59522 10.1733
    endloop
  endfacet
  facet normal 1 -0 0
    outer loop
      vertex 3 -8.33862 11.744
      vertex 3 -10 12
      vertex 3 -9.59522 10.1733
    endloop
  endfacet
  facet normal 1 0 0
    outer loop
      vertex 3 -8.33862 11.744
      vertex 3 -7.93671 12
      vertex 3 -10 12
    endloop
  endfacet
  facet normal -1.9227e-16 -0.926023 0.377466
    outer loop
      vertex 3 -9.59522 10.1733
      vertex 3 -10 9.18024
      vertex 6.5 -10 9.18024
    endloop
  endfacet
  facet normal 0 -0.926023 0.377466
    outer loop
      vertex 6.5 -9.59522 10.1733
      vertex 3 -9.59522 10.1733
      vertex 6.5 -10 9.18024
    endloop
  endfacet
  facet normal -1 0 0
    outer loop
      vertex 6.5 -7.93671 12
      vertex 6.5 -8.33862 11.744
      vertex 6.5 -10 12
    endloop
  endfacet
  facet normal -1 0 0
    outer loop
      vertex 6.5 -10 12
      vertex 6.5 -8.33862 11.744
      vertex 6.5 -9.59522 10.1733
    endloop
  endfacet
  facet normal -1 0 0
    outer loop
      vertex 6.5 -9.59522 10.1733
      vertex 6.5 -10 9.18024
      vertex 6.5 -10 12
    endloop
  endfacet
  facet normal 1 0 -0
    outer loop
      vertex 9 -10 12
      vertex 9 -10 9.18024
      vertex 9 -9.59522 10.1733
    endloop
  endfacet
  facet normal 1 -0 0
    outer loop
      vertex 9 -8.33862 11.744
      vertex 9 -10 12
      vertex 9 -9.59522 10.1733
    endloop
  endfacet
  facet normal 1 0 0
    outer loop
      vertex 9 -8.33862 11.744
      vertex 9 -7.93671 12
      vertex 9 -10 12
    endloop
  endfacet
  facet normal -1.9227e-16 -0.926023 0.377466
    outer loop
      vertex 9 -9.59522 10.1733
      vertex 9 -10 9.18024
      vertex 12.5 -10 9.18024
    endloop
  endfacet
  facet normal 0 -0.926023 0.377466
    outer loop
      vertex 12.5 -9.59522 10.1733
      vertex 9 -9.59522 10.1733
      vertex 12.5 -10 9.18024
    endloop
  endfacet
  facet normal -1 0 0
    outer loop
      vertex 12.5 -7.93671 12
      vertex 12.5 -8.33862 11.744
      vertex 12.5 -10 12
    endloop
  endfacet
  facet normal -1 0 0
    outer loop
      vertex 12.5 -10 12
      vertex 12.5 -8.33862 11.744
      vertex 12.5 -9.59522 10.1733
    endloop
  endfacet
  facet normal -1 0 0
    outer loop
      vertex 12.5 -9.59522 10.1733
      vertex 12.5 -10 9.18024
      vertex 12.5 -10 12
    endloop
  endfacet
  facet normal 0 -0.926023 -0.377466
    outer loop
      vertex 9 -10 2.81976
      vertex 9 -9.59522 1.82673
      vertex 12.5 -9.59522 1.82673
    endloop
  endfacet
  facet normal 0 -0.926023 -0.377466
    outer loop
      vertex 12.5 -10 2.81976
      vertex 9 -10 2.81976
      vertex 12.5 -9.59522 1.82673
    endloop
  endfacet
  facet normal 0 -0.926023 -0.377466
    outer loop
      vertex 3 -10 2.81976
      vertex 3 -9.59522 1.82673
      vertex 6.5 -9.59522 1.82673
    endloop
  endfacet
  facet normal 0 -0.926023 -0.377466
    outer loop
      vertex 6.5 -10 2.81976
      vertex 3 -10 2.81976
      vertex 6.5 -9.59522 1.82673
    endloop
  endfacet
  facet normal 1 0 0
    outer loop
      vertex 1.25 -7.5 1
      vertex 1.25 -6.1 1
      vertex 1.25 -6.1 12
    endloop
  endfacet
  facet normal 1 0 -0
    outer loop
      vertex 1.25 -7.5 12
      vertex 1.25 -7.5 1
      vertex 1.25 -6.1 12
    endloop
  endfacet
  facet normal 0 1 -0
    outer loop
      vertex 1.25 -7.5 12
      vertex 4.75 -7.5 12
      vertex 1.25 -7.5 1
    endloop
  endfacet
  facet normal 0 1 0
    outer loop
      vertex 1.25 -7.5 1
      vertex 4.75 -7.5 12
      vertex 4.75 -7.5 1
    endloop
  endfacet
  facet normal -1 0 0
    outer loop
      vertex 4.75 -7.5 12
      vertex 4.75 -6.1 12
      vertex 4.75 -7.5 1
    endloop
  endfacet
  facet normal -1 -0 0
    outer loop
      vertex 4.75 -7.5 1
      vertex 4.75 -6.1 12
      vertex 4.75 -6.1 1
    endloop
  endfacet
  facet normal 0 1 -0
    outer loop
      vertex 4.75 -6.1 12
      vertex 6.25 -6.1 12
      vertex 4.75 -6.1 1
    endloop
  endfacet
  facet normal 0 1 0
    outer loop
      vertex 4.75 -6.1 1
      vertex 6.25 -6.1 12
      vertex 6.25 -6.1 1
    endloop
  endfacet
  facet normal 1 0 0
    outer loop
      vertex 6.25 -7.5 1
      vertex 6.25 -6.1 1
      vertex 6.25 -6.1 12
    endloop
  endfacet
  facet normal 1 0 -0
    outer loop
      vertex 6.25 -7.5 12
      vertex 6.25 -7.5 1
      vertex 6.25 -6.1 12
    endloop
  endfacet
  facet normal 0 1 -0
    outer loop
      vertex 6.25 -7.5 12
      vertex 9.75 -7.5 12
      vertex 6.25 -7.5 1
    endloop
  endfacet
  facet normal 0 1 0
    outer loop
      vertex 6.25 -7.5 1
      vertex 9.75 -7.5 12
      vertex 9.75 -7.5 1
    endloop
  endfacet
  facet normal -1 0 0
    outer loop
      vertex 9.75 -7.5 12
      vertex 9.75 -6.1 12
      vertex 9.75 -7.5 1
    endloop
  endfacet
  facet normal -1 -0 0
    outer loop
      vertex 9.75 -7.5 1
      vertex 9.75 -6.1 12
      vertex 9.75 -6.1 1
    endloop
  endfacet
  facet normal 0 1 -0
    outer loop
      vertex 9.75 -6.1 12
      vertex 11.1 -6.1 12
      vertex 9.75 -6.1 1
    endloop
  endfacet
  facet normal 0 1 0
    outer loop
      vertex 9.75 -6.1 1
      vertex 11.1 -6.1 12
      vertex 11.1 -6.1 1
    endloop
  endfacet
  facet normal 1 0 0
    outer loop
      vertex 11.1 -7.5 1
      vertex 11.1 -6.1 1
      vertex 11.1 -6.1 12
    endloop
  endfacet
  facet normal 1 0 -0
    outer loop
      vertex 11.1 -7.5 12
      vertex 11.1 -7.5 1
      vertex 11.1 -6.1 12
    endloop
  endfacet
  facet normal 0 1 -0
    outer loop
      vertex 11.1 -7.5 12
      vertex 16.1 -7.5 12
      vertex 11.1 -7.5 1
    endloop
  endfacet
  facet normal 0 1 0
    outer loop
      vertex 11.1 -7.5 1
      vertex 16.1 -7.5 12
      vertex 16.1 -7.5 1
    endloop
  endfacet
  facet normal -1 0 0
    outer loop
      vertex 16.1 -7.5 12
      vertex 16.1 -7.40497 12
      vertex 16.1 -7.5 1
    endloop
  endfacet
  facet normal -1 -0 0
    outer loop
      vertex 16.1 -7.5 1
      vertex 16.1 -7.40497 12
      vertex 16.1 -7.40497 1
    endloop
  endfacet
  facet normal -0.156435 0.987688 0
    outer loop
      vertex 16.1 -7.40497 12
      vertex 16.2725 -7.37764 12
      vertex 16.1 -7.40497 1
    endloop
  endfacet
  facet normal -0.156435 0.987688 0
    outer loop
      vertex 16.1 -7.40497 1
      vertex 16.2725 -7.37764 12
      vertex 16.2725 -7.37764 1
    endloop
  endfacet
  facet normal -0.453991 0.891007 0
    outer loop
      vertex 16.2725 -7.37764 12
      vertex 16.9695 -7.02254 12
      vertex 16.2725 -7.37764 1
    endloop
  endfacet
  facet normal -0.453991 0.891007 0
    outer loop
      vertex 16.2725 -7.37764 1
      vertex 16.9695 -7.02254 12
      vertex 16.9695 -7.02254 1
    endloop
  endfacet
  facet normal -0.707107 0.707107 0
    outer loop
      vertex 16.9695 -7.02254 12
      vertex 17.5225 -6.46946 12
      vertex 16.9695 -7.02254 1
    endloop
  endfacet
  facet normal -0.707107 0.707107 0
    outer loop
      vertex 16.9695 -7.02254 1
      vertex 17.5225 -6.46946 12
      vertex 17.5225 -6.46946 1
    endloop
  endfacet
  facet normal -0.891007 0.453991 0
    outer loop
      vertex 17.5225 -6.46946 12
      vertex 17.8776 -5.77254 12
      vertex 17.5225 -6.46946 1
    endloop
  endfacet
  facet normal -0.891007 0.453991 0
    outer loop
      vertex 17.5225 -6.46946 1
      vertex 17.8776 -5.77254 12
      vertex 17.8776 -5.77254 1
    endloop
  endfacet
  facet normal -0.987688 0.156435 0
    outer loop
      vertex 17.8776 -5.77254 12
      vertex 18 -5 12
      vertex 17.8776 -5.77254 1
    endloop
  endfacet
  facet normal -0.987688 0.156435 0
    outer loop
      vertex 17.8776 -5.77254 1
      vertex 18 -5 12
      vertex 18 -5 1
    endloop
  endfacet
  facet normal -0.987688 -0.156435 -0
    outer loop
      vertex 18 -5 1
      vertex 18 -5 12
      vertex 17.8776 -4.22746 1
    endloop
  endfacet
  facet normal -0.987688 -0.156435 -0
    outer loop
      vertex 17.8776 -4.22746 1
      vertex 18 -5 12
      vertex 17.8776 -4.22746 12
    endloop
  endfacet
  facet normal -0.891007 -0.453991 -0
    outer loop
      vertex 17.8776 -4.22746 1
      vertex 17.8776 -4.22746 12
      vertex 17.5225 -3.53054 1
    endloop
  endfacet
  facet normal -0.891007 -0.453991 -0
    outer loop
      vertex 17.5225 -3.53054 1
      vertex 17.8776 -4.22746 12
      vertex 17.5225 -3.53054 12
    endloop
  endfacet
  facet normal -0.707107 -0.707107 0
    outer loop
      vertex 16.9695 -2.97746 1
      vertex 17.5225 -3.53054 1
      vertex 17.5225 -3.53054 12
    endloop
  endfacet
  facet normal -0.707107 -0.707107 0
    outer loop
      vertex 16.9695 -2.97746 12
      vertex 16.9695 -2.97746 1
      vertex 17.5225 -3.53054 12
    endloop
  endfacet
  facet normal -0.453991 -0.891007 0
    outer loop
      vertex 16.2725 -2.62236 1
      vertex 16.9695 -2.97746 1
      vertex 16.9695 -2.97746 12
    endloop
  endfacet
  facet normal -0.453991 -0.891007 0
    outer loop
      vertex 16.2725 -2.62236 12
      vertex 16.2725 -2.62236 1
      vertex 16.9695 -2.97746 12
    endloop
  endfacet
  facet normal -0.156435 -0.987688 0
    outer loop
      vertex 16.1 -2.59503 1
      vertex 16.2725 -2.62236 1
      vertex 16.2725 -2.62236 12
    endloop
  endfacet
  facet normal -0.156435 -0.987688 0
    outer loop
      vertex 16.1 -2.59503 12
      vertex 16.1 -2.59503 1
      vertex 16.2725 -2.62236 12
    endloop
  endfacet
  facet normal -1 0 0
    outer loop
      vertex 16.1 -2.59503 12
      vertex 16.1 -2.5 12
      vertex 16.1 -2.59503 1
    endloop
  endfacet
  facet normal -1 -0 0
    outer loop
      vertex 16.1 -2.59503 1
      vertex 16.1 -2.5 12
      vertex 16.1 -2.5 1
    endloop
  endfacet
  facet normal -0 -1 0
    outer loop
      vertex 11.1 -2.5 1
      vertex 16.1 -2.5 1
      vertex 16.1 -2.5 12
    endloop
  endfacet
  facet normal 0 -1 0
    outer loop
      vertex 11.1 -2.5 12
      vertex 11.1 -2.5 1
      vertex 16.1 -2.5 12
    endloop
  endfacet
  facet normal 1 0 0
    outer loop
      vertex 11.1 -3.9 1
      vertex 11.1 -2.5 1
      vertex 11.1 -2.5 12
    endloop
  endfacet
  facet normal 1 0 -0
    outer loop
      vertex 11.1 -3.9 12
      vertex 11.1 -3.9 1
      vertex 11.1 -2.5 12
    endloop
  endfacet
  facet normal -0 -1 0
    outer loop
      vertex 9.75 -3.9 1
      vertex 11.1 -3.9 1
      vertex 11.1 -3.9 12
    endloop
  endfacet
  facet normal 0 -1 0
    outer loop
      vertex 9.75 -3.9 12
      vertex 9.75 -3.9 1
      vertex 11.1 -3.9 12
    endloop
  endfacet
  facet normal -1 0 0
    outer loop
      vertex 9.75 -3.9 12
      vertex 9.75 -2.5 12
      vertex 9.75 -3.9 1
    endloop
  endfacet
  facet normal -1 -0 0
    outer loop
      vertex 9.75 -3.9 1
      vertex 9.75 -2.5 12
      vertex 9.75 -2.5 1
    endloop
  endfacet
  facet normal -0 -1 0
    outer loop
      vertex 6.25 -2.5 1
      vertex 9.75 -2.5 1
      vertex 9.75 -2.5 12
    endloop
  endfacet
  facet normal 0 -1 0
    outer loop
      vertex 6.25 -2.5 12
      vertex 6.25 -2.5 1
      vertex 9.75 -2.5 12
    endloop
  endfacet
  facet normal 1 0 0
    outer loop
      vertex 6.25 -3.9 1
      vertex 6.25 -2.5 1
      vertex 6.25 -2.5 12
    endloop
  endfacet
  facet normal 1 0 -0
    outer loop
      vertex 6.25 -3.9 12
      vertex 6.25 -3.9 1
      vertex 6.25 -2.5 12
    endloop
  endfacet
  facet normal -0 -1 0
    outer loop
      vertex 4.75 -3.9 1
      vertex 6.25 -3.9 1
      vertex 6.25 -3.9 12
    endloop
  endfacet
  facet normal 0 -1 0
    outer loop
      vertex 4.75 -3.9 12
      vertex 4.75 -3.9 1
      vertex 6.25 -3.9 12
    endloop
  endfacet
  facet normal -1 0 0
    outer loop
      vertex 4.75 -3.9 12
      vertex 4.75 -2.5 12
      vertex 4.75 -3.9 1
    endloop
  endfacet
  facet normal -1 -0 0
    outer loop
      vertex 4.75 -3.9 1
      vertex 4.75 -2.5 12
      vertex 4.75 -2.5 1
    endloop
  endfacet
  facet normal -0 -1 0
    outer loop
      vertex 1.25 -2.5 1
      vertex 4.75 -2.5 1
      vertex 4.75 -2.5 12
    endloop
  endfacet
  facet normal 0 -1 0
    outer loop
      vertex 1.25 -2.5 12
      vertex 1.25 -2.5 1
      vertex 4.75 -2.5 12
    endloop
  endfacet
  facet normal 1 0 0
    outer loop
      vertex 1.25 -3.9 1
      vertex 1.25 -2.5 1
      vertex 1.25 -2.5 12
    endloop
  endfacet
  facet normal 1 0 -0
    outer loop
      vertex 1.25 -3.9 12
      vertex 1.25 -3.9 1
      vertex 1.25 -2.5 12
    endloop
  endfacet
  facet normal -6.81615e-17 0.537201 0.843454
    outer loop
      vertex 3 -2.06329 12
      vertex 6.5 -2.06329 12
      vertex 6.5 -1.66138 11.744
    endloop
  endfacet
  facet normal 0 0.537201 0.843454
    outer loop
      vertex 3 -1.66138 11.744
      vertex 3 -2.06329 12
      vertex 6.5 -1.66138 11.744
    endloop
  endfacet
  facet normal -6.81615e-17 0.537201 0.843454
    outer loop
      vertex 9 -2.06329 12
      vertex 12.5 -2.06329 12
      vertex 12.5 -1.66138 11.744
    endloop
  endfacet
  facet normal 0 0.537201 0.843454
    outer loop
      vertex 9 -1.66138 11.744
      vertex 9 -2.06329 12
      vertex 12.5 -1.66138 11.744
    endloop
  endfacet
  facet normal 0 -0.537201 0.843454
    outer loop
      vertex 9 -7.93671 12
      vertex 9 -8.33862 11.744
      vertex 12.5 -8.33862 11.744
    endloop
  endfacet
  facet normal 0 -0.537201 0.843454
    outer loop
      vertex 12.5 -7.93671 12
      vertex 9 -7.93671 12
      vertex 12.5 -8.33862 11.744
    endloop
  endfacet
  facet normal 0 -0.537201 0.843454
    outer loop
      vertex 3 -7.93671 12
      vertex 3 -8.33862 11.744
      vertex 6.5 -8.33862 11.744
    endloop
  endfacet
  facet normal 0 -0.537201 0.843454
    outer loop
      vertex 6.5 -7.93671 12
      vertex 3 -7.93671 12
      vertex 6.5 -8.33862 11.744
    endloop
  endfacet
  facet normal 3.15387e-17 -0.780869 -0.624695
    outer loop
      vertex 3 -9.59522 1.82673
      vertex 3 -8.33862 0.255979
      vertex 6.5 -8.33862 0.255979
    endloop
  endfacet
  facet normal 0 -0.780869 -0.624695
    outer loop
      vertex 6.5 -9.59522 1.82673
      vertex 3 -9.59522 1.82673
      vertex 6.5 -8.33862 0.255979
    endloop
  endfacet
  facet normal 3.15387e-17 -0.780869 -0.624695
    outer loop
      vertex 9 -9.59522 1.82673
      vertex 9 -8.33862 0.255979
      vertex 12.5 -8.33862 0.255979
    endloop
  endfacet
  facet normal 0 -0.780869 -0.624695
    outer loop
      vertex 12.5 -9.59522 1.82673
      vertex 9 -9.59522 1.82673
      vertex 12.5 -8.33862 0.255979
    endloop
  endfacet
  facet normal 0 0.780869 -0.624695
    outer loop
      vertex 12.5 -0.404783 1.82673
      vertex 12.5 -1.66138 0.255979
      vertex 9 -0.404783 1.82673
    endloop
  endfacet
  facet normal 3.15387e-17 0.780869 -0.624695
    outer loop
      vertex 9 -0.404783 1.82673
      vertex 12.5 -1.66138 0.255979
      vertex 9 -1.66138 0.255979
    endloop
  endfacet
  facet normal 0 0.780869 -0.624695
    outer loop
      vertex 6.5 -0.404783 1.82673
      vertex 6.5 -1.66138 0.255979
      vertex 3 -0.404783 1.82673
    endloop
  endfacet
  facet normal 3.15387e-17 0.780869 -0.624695
    outer loop
      vertex 3 -0.404783 1.82673
      vertex 6.5 -1.66138 0.255979
      vertex 3 -1.66138 0.255979
    endloop
  endfacet
  facet normal -0 0.780869 0.624695
    outer loop
      vertex 12.5 -1.66138 11.744
      vertex 12.5 -0.404783 10.1733
      vertex 9 -1.66138 11.744
    endloop
  endfacet
  facet normal 0 0.780869 0.624695
    outer loop
      vertex 9 -1.66138 11.744
      vertex 12.5 -0.404783 10.1733
      vertex 9 -0.404783 10.1733
    endloop
  endfacet
  facet normal -0 0.780869 0.624695
    outer loop
      vertex 6.5 -1.66138 11.744
      vertex 6.5 -0.404783 10.1733
      vertex 3 -1.66138 11.744
    endloop
  endfacet
  facet normal 0 0.780869 0.624695
    outer loop
      vertex 3 -1.66138 11.744
      vertex 6.5 -0.404783 10.1733
      vertex 3 -0.404783 10.1733
    endloop
  endfacet
  facet normal 0 -0.780869 0.624695
    outer loop
      vertex 3 -8.33862 11.744
      vertex 3 -9.59522 10.1733
      vertex 6.5 -9.59522 10.1733
    endloop
  endfacet
  facet normal 0 -0.780869 0.624695
    outer loop
      vertex 6.5 -8.33862 11.744
      vertex 3 -8.33862 11.744
      vertex 6.5 -9.59522 10.1733
    endloop
  endfacet
  facet normal 0 -0.780869 0.624695
    outer loop
      vertex 9 -8.33862 11.744
      vertex 9 -9.59522 10.1733
      vertex 12.5 -9.59522 10.1733
    endloop
  endfacet
  facet normal 0 -0.780869 0.624695
    outer loop
      vertex 12.5 -8.33862 11.744
      vertex 9 -8.33862 11.744
      vertex 12.5 -9.59522 10.1733
    endloop
  endfacet
endsolid OpenSCAD_Model
